<svg xmlns="http://www.w3.org/2000/svg" xml:space="preserve" width="2000" height="1500" data-id="lg_epo0fikmAbZ5tZjABU" data-version="1" viewBox="0 0 2000 1500"><path fill="#0a1627" stroke="transparent" d="M0 0h2000v1500H0z"/><g data-padding="20"><g transform="translate(-1089.587 -811.914)scale(2.0315)"><rect width="448.284" height="448.284" x="404.931" y="186.656" fill="none" stroke="#fe0039" stroke-width="22.5" paint-order="stroke" rx="0" ry="0" transform="translate(280 280)scale(1.19)"/><rect width="222.264" height="379.68" x="637.464" y="299.01" fill="none" rx="0" ry="0" transform="translate(280.38 280.02)"/><path fill="#fe0039" stroke="#fe0039" stroke-width="7.32" d="M1031.456 880.94q-28.56 0-55.77-10.58-27.22-10.58-48.39-30.07l27.89-34.95q20.5 17.81 39.48 26.04 18.99 8.24 40.15 8.24 14.79 0 25.54-3.53t16.63-10.25 5.88-15.79q0-12.1-8.73-18.65-8.74-6.55-29.91-10.25l-46.7-8.06q-29.91-5.04-45.53-21.17t-15.62-41.66q0-21.84 11.25-37.97 11.26-16.13 31.92-24.7 20.67-8.57 49.23-8.57 25.87 0 51.57 8.74 25.71 8.74 45.53 24.19l-26.21 36.29q-36.96-28.22-74.25-28.22-13.11 0-22.85 3.36-9.75 3.36-14.95 9.24-5.21 5.88-5.21 13.94 0 10.75 7.73 16.63 7.72 5.88 25.87 8.91l44.35 7.39q35.28 5.71 52.75 22.34t17.47 43.85q0 22.85-12.09 39.82-12.1 16.96-34.44 26.2-22.35 9.24-52.59 9.24Z"/></g><path fill="transparent" stroke="transparent" stroke-width="2.111" d="M437.5 187.5h1125v1125h-1125z"/></g></svg>